<?xml version="1.0" encoding="UTF-8"?><svg id="Layer_1" xmlns="http://www.w3.org/2000/svg" width="508.5" height="505.21" viewBox="0 0 508.5 505.21"><path d="m234.83.58c-63.7,5.5-126.4,36.9-169.5,84.7C29.73,124.58,10.53,164.58,2.33,216.18c-2.6,16-3.1,48.3-1.1,64.4,4.2,32.9,11.9,58.8,25.6,85.5,20.5,40.1,47.5,70.5,84.1,94.8,32.8,21.7,66.6,35.2,105.5,41.9,17.3,3,59.4,3.3,74.4.5,28.6-5.3,41.8-9.2,65.5-19.4,25.4-10.8,45.5-23.5,66.8-42.3,51.1-44.9,80.8-107.2,85.2-179,.7-12.2-.8-37.3-3.1-50.4-13.9-80.2-64.5-147.6-138.9-184.8-26.1-13.1-47.6-20-76.9-24.8-13.9-2.3-40.4-3.3-54.6-2Zm45.4,88.1c29.3,5.9,55.8,19.1,78.6,39.3,32.7,29,52.8,70.6,54.7,113.6.5,11-.7,29.9-2.3,35.2-.5,1.7-3.3,1.8-39.5,1.8s-39.2.1-42.7,1.9c-7,3.6-9.3,12-5.1,18.8,3.9,6.3,4.1,6.3-27.6,6.3h-28.5v-42.4l23.4-23.6c12.8-12.9,24.1-24.6,25-26,4.9-7.4-.8-19.9-10-21.6-8.3-1.5-9.4-.8-31.6,21.9l-20.7,21.2-20.3-20.1c-11.2-11.1-21.4-20.9-22.8-21.8-2.8-1.9-9.1-2.1-12.3-.5-6.7,3.5-10.4,10.2-9.2,16.7.6,3.1,4.5,7.5,25.6,28.7l24.9,25.1v42.4h-28.3c-19.3,0-28.7-.4-29.4-1.1-.8-.8-.4-2.1,1.3-4.6,4.6-6.8,2.5-15.7-4.6-19.3-3.7-1.9-5.8-2-42.9-2-33,0-39-.2-39.4-1.4-.3-.8-1.1-7.1-1.8-14-5.4-56,21.7-113.2,70.1-147.9,34-24.2,77.2-34.2,115.4-26.6Zm98.7,246.2c7.8,5.2,7.9,15.6.3,21.6l-2.7,2.1h-122.1c-95.7,0-122.6-.3-124.6-1.3-1.3-.7-3.5-2.8-4.7-4.6-4.1-6.1-2.3-14.3,4-18.1,3.1-1.9,6-2,124.8-2h121.6l3.4,2.3Zm-47.2,54.2c3,1.5,6.1,6.9,6.1,10.4,0,4-2.8,9-6.2,11.1-3.2,2-4.5,2-78.6,1.8l-75.4-.3-3.5-3.9c-3.3-3.6-3.5-4.1-3.1-9.4.4-4.7,1-6,3.7-8.4l3.1-2.8h75.6c64.1,0,75.9.2,78.3,1.5Z" fill="#2563eb"/><path d="m246.83,121.48c-7.1,2.3-14.1,8.3-17.4,14.9-2.7,5.2-3.1,12.1-1.2,18.7,1.4,4.5,2.9,6.9,7,11,5.8,5.9,9.8,7.5,18.5,7.5s13-1.9,18.8-7.5c4.1-4,5.5-6.2,6.8-10.9,3.7-12.8-1.9-25.7-13.8-31.8-4.5-2.2-14.5-3.3-18.7-1.9Z"/></svg>