<?xml version="1.0" standalone="no"?>
<!DOCTYPE svg PUBLIC "-//W3C//DTD SVG 20010904//EN"
 "http://www.w3.org/TR/2001/REC-SVG-20010904/DTD/svg10.dtd">
<svg version="1.0" xmlns="http://www.w3.org/2000/svg"
 width="512.000000pt" height="512.000000pt" viewBox="0 0 512.000000 512.000000"
 preserveAspectRatio="xMidYMid meet">

<g transform="translate(0.000000,512.000000) scale(0.100000,-0.100000)"
fill="#000000" stroke="none">
<path d="M2370 5060 c-637 -55 -1264 -369 -1695 -847 -356 -393 -548 -793
-630 -1309 -26 -160 -31 -483 -11 -644 42 -329 119 -588 256 -855 205 -401
475 -705 841 -948 328 -217 666 -352 1055 -419 173 -30 594 -33 744 -5 286 53
418 92 655 194 254 108 455 235 668 423 511 449 808 1072 852 1790 7 122 -8
373 -31 504 -139 802 -645 1476 -1389 1848 -261 131 -476 200 -769 248 -139
23 -404 33 -546 20z m454 -881 c293 -59 558 -191 786 -393 327 -290 528 -706
547 -1136 5 -110 -7 -299 -23 -352 -5 -17 -33 -18 -395 -18 -364 0 -392 -1
-427 -19 -70 -36 -93 -120 -51 -188 39 -63 41 -63 -276 -63 l-285 0 0 212 0
212 234 236 c128 129 241 246 250 260 49 74 -8 199 -100 216 -83 15 -94 8
-316 -219 l-207 -212 -203 201 c-112 111 -214 209 -228 218 -28 19 -91 21
-123 5 -67 -35 -104 -102 -92 -167 6 -31 45 -75 256 -287 l249 -251 0 -212 0
-212 -283 0 c-193 0 -287 4 -294 11 -8 8 -4 21 13 46 46 68 25 157 -46 193
-37 19 -58 20 -429 20 -330 0 -390 2 -394 14 -3 8 -11 71 -18 140 -54 560 217
1132 701 1479 340 242 772 342 1154 266z m987 -2462 c78 -52 79 -156 3 -216
l-27 -21 -1221 0 c-957 0 -1226 3 -1246 13 -13 7 -35 28 -47 46 -41 61 -23
143 40 181 31 19 60 20 1248 20 l1216 0 34 -23z m-472 -542 c30 -15 61 -69 61
-104 0 -40 -28 -90 -62 -111 -32 -20 -45 -20 -786 -18 l-754 3 -35 39 c-33 36
-35 41 -31 94 4 47 10 60 37 84 l31 28 756 0 c641 0 759 -2 783 -15z"/>
<path d="M2490 3851 c-71 -23 -141 -83 -174 -149 -27 -52 -31 -121 -12 -187
14 -45 29 -69 70 -110 58 -59 98 -75 185 -75 83 0 130 19 188 75 41 40 55 62
68 109 37 128 -19 257 -138 318 -45 22 -145 33 -187 19z"/>
</g>
</svg>
